<?xml version="1.0" encoding="UTF-8"?>
<svg width="45px" height="25px" viewBox="0 0 45 25" version="1.1" xmlns="http://www.w3.org/2000/svg" xmlns:xlink="http://www.w3.org/1999/xlink">
    <!-- Generator: Sketch 63.1 (92452) - https://sketch.com -->
    <title>Combined Shape</title>
    <desc>Created with Sketch.</desc>
    <g id="Page-1" stroke="none" stroke-width="1" fill="none" fill-rule="evenodd">
        <g id="Artboard" transform="translate(-172.000000, -206.000000)" fill="#F8F8F8">
            <path d="M206.522465,219.687734 L205.426533,220.798349 C205.360733,220.86503 205.2907,220.924998 205.217286,220.978246 L185.947785,240.503881 C185.301257,241.159071 184.246005,241.166093 183.590815,240.519565 C183.585552,240.514372 183.580324,240.509144 183.575131,240.503881 L182.479199,239.393266 C181.838746,238.744233 181.838746,237.701013 182.479199,237.051979 L200.785,218.499 L182.479153,199.947973 C181.838718,199.298959 181.838697,198.255775 182.479105,197.606734 L183.574992,196.496076 C184.221494,195.840859 185.276745,195.833795 185.931962,196.480297 L185.947693,196.496028 L185.947693,196.496028 L205.217103,216.021655 C205.284746,216.070708 205.349549,216.125477 205.410849,216.185968 L205.426533,216.201651 L205.426533,216.201651 L206.522465,217.312266 C206.823855,217.617693 206.983414,218.010415 207.001143,218.408271 L207.001143,218.591729 C206.983414,218.989585 206.823855,219.382307 206.522465,219.687734 Z" id="Combined-Shape" transform="translate(194.500000, 218.500000) rotate(90.000000) translate(-194.500000, -218.500000) "></path>
        </g>
    </g>
</svg>