<?xml version="1.0" encoding="UTF-8"?>
<svg width="25px" height="22px" viewBox="0 0 25 22" version="1.1" xmlns="http://www.w3.org/2000/svg" xmlns:xlink="http://www.w3.org/1999/xlink">
    <!-- Generator: Sketch 63.1 (92452) - https://sketch.com -->
    <title>Combined Shape</title>
    <desc>Created with Sketch.</desc>
    <g id="Page-1" stroke="none" stroke-width="1" fill="none" fill-rule="evenodd">
        <g id="Artboard" transform="translate(-89.000000, -43.000000)" fill="#F8F8F8">
            <path d="M112.769107,43.0623357 C113.346024,43.1071004 113.844938,43.5215688 113.970746,44.1114898 C113.990195,44.2026859 114,44.2956743 114,44.3889212 L113.999,58.524 L114,58.5500977 C114,58.5582692 113.999957,58.5664205 113.999871,58.5745516 L114,58.6152086 C114,58.6918767 113.993514,58.7670297 113.98106,58.8401489 C113.774941,60.3832203 111.909863,61.1148303 109.639535,61.1148303 C107.231316,61.1148303 105.27907,59.7030216 105.27907,57.9614674 C105.27907,56.2199132 107.231316,54.8081046 109.639535,54.8081046 C109.938204,54.8081046 110.229859,54.8388736 110.511647,54.8961018 L110.511,46.842 L97.72,49.066 L97.7209302,62.0780393 C97.7209302,62.183393 97.7086819,62.285886 97.6855316,62.384172 C97.4109495,63.8561054 95.5792336,64.5548625 93.3604651,64.5548625 C90.9522467,64.5548625 89,63.1430538 89,61.4014996 C89,59.6599454 90.9522467,58.2481368 93.3604651,58.2481368 C93.659134,58.2481368 93.9507896,58.2789058 94.2325775,58.336134 L94.2325581,47.5381699 C94.2325581,47.3831995 94.2590599,47.2344189 94.3077784,47.096113 C94.38822,46.5449631 94.8119598,46.0822037 95.3903387,45.9787868 C95.3924218,45.9784143 95.3945059,45.9780468 95.3965907,45.9776843 L112.242727,43.0484184 C112.423057,43.0170621 112.601245,43.0236119 112.769107,43.0623357 Z" id="Combined-Shape"></path>
        </g>
    </g>
</svg>