<?xml version="1.0" encoding="UTF-8"?>
<svg width="25px" height="25px" viewBox="0 0 25 25" version="1.1" xmlns="http://www.w3.org/2000/svg" xmlns:xlink="http://www.w3.org/1999/xlink">
    <!-- Generator: Sketch 63.1 (92452) - https://sketch.com -->
    <title>Group 2</title>
    <desc>Created with Sketch.</desc>
    <g id="Page-1" stroke="none" stroke-width="1" fill="none" fill-rule="evenodd">
        <g id="Artboard" transform="translate(-204.000000, -162.000000)" fill="#F8F8F8">
            <g id="Group-2" transform="translate(204.000000, 162.000000)">
                <path d="M16,0 C16.5522847,-1.01453063e-16 17,0.44771525 17,1 L17,3 L4,3 C3.44771525,3 3,3.44771525 3,4 L3,4 L3,21 C3,21.5522847 3.44771525,22 4,22 L4,22 L17,22 L17,24 C17,24.5522847 16.5522847,25 16,25 L1,25 C0.44771525,25 6.76353751e-17,24.5522847 0,24 L0,1 C-6.76353751e-17,0.44771525 0.44771525,1.01453063e-16 1,0 L16,0 Z" id="Combined-Shape"></path>
                <path d="M24.2781746,13.3284271 L19.3284271,18.2781746 C18.9379028,18.6686989 18.3047379,18.6686989 17.9142136,18.2781746 L17.2071068,17.5710678 C16.8165825,17.1805435 16.8165825,16.5473785 17.2071068,16.1568542 L19.364,13.9994466 L7,14 C6.44771525,14 6,13.5522847 6,13 L6,12 C6,11.4477153 6.44771525,11 7,11 L19.146,10.9994466 L17.2071068,9.06066017 C16.8165825,8.67013588 16.8165825,8.0369709 17.2071068,7.64644661 L17.9142136,6.93933983 C18.3047379,6.54881554 18.9379028,6.54881554 19.3284271,6.93933983 L24.2781746,11.8890873 C24.4584166,12.0693293 24.5554699,12.301258 24.5693347,12.5371627 L24.5693347,12.6803517 C24.5554699,12.9162564 24.4584166,13.1481851 24.2781746,13.3284271 Z" id="Combined-Shape"></path>
            </g>
        </g>
    </g>
</svg>