<?xml version="1.0" encoding="UTF-8"?>
<svg width="75px" height="59px" viewBox="0 0 75 59" version="1.1" xmlns="http://www.w3.org/2000/svg" xmlns:xlink="http://www.w3.org/1999/xlink">
    <!-- Generator: Sketch 64 (93537) - https://sketch.com -->
    <title>camera-icon-white</title>
    <desc>Created with Sketch.</desc>
    <g id="Page-1" stroke="none" stroke-width="1" fill="none" fill-rule="evenodd">
        <g id="Artboard" transform="translate(-313.000000, -70.000000)">
            <g id="camera-icon-white" transform="translate(313.000000, 70.000000)">
                <path d="M50.0618844,1.875 L25.9381156,1.875 C25.7169232,1.875 25.505997,1.93981704 25.3276377,2.05504408 C25.1492783,2.17027111 25.0034857,2.33590814 24.9125605,2.5375481 L22.0542165,8.875 L7.5,8.875 C5.94669914,8.875 4.54044914,9.50459957 3.52252436,10.5225244 C2.50459957,11.5404491 1.875,12.9466991 1.875,14.5 L1.875,50.6764706 C1.875,52.2297714 2.50459957,53.6360214 3.52252436,54.6539462 C4.54044914,55.671871 5.94669914,56.3014706 7.5,56.3014706 L67.5,56.3014706 C69.0533009,56.3014706 70.4595509,55.671871 71.4774756,54.6539462 C72.4954004,53.6360214 73.125,52.2297714 73.125,50.6764706 L73.125,14.5 C73.125,12.9466991 72.4954004,11.5404491 71.4774756,10.5225244 C70.4595509,9.50459957 69.0533009,8.875 67.5,8.875 L53.9445725,8.875 L51.0873785,2.53741274 C50.9965143,2.33590814 50.8507217,2.17027111 50.6723623,2.05504408 C50.494003,1.93981704 50.2830768,1.875 50.0618844,1.875 Z" id="Combined-Shape" stroke="#F8F8F8" stroke-width="3.75"></path>
                <circle id="Oval" stroke="#F8F8F8" stroke-width="3.75" cx="38" cy="33" r="13.125"></circle>
                <circle id="Oval" fill="#F8F8F8" cx="62" cy="19" r="4"></circle>
            </g>
        </g>
    </g>
</svg>