<?xml version="1.0" encoding="UTF-8"?>
<svg width="25px" height="25px" viewBox="0 0 25 25" version="1.1" xmlns="http://www.w3.org/2000/svg" xmlns:xlink="http://www.w3.org/1999/xlink">
    <!-- Generator: Sketch 63.1 (92452) - https://sketch.com -->
    <title>Group 10</title>
    <desc>Created with Sketch.</desc>
    <g id="Page-1" stroke="none" stroke-width="1" fill="none" fill-rule="evenodd">
        <g id="Artboard" transform="translate(-69.000000, -175.000000)" stroke="#5F9CD1">
            <g id="Group-10" transform="translate(69.000000, 175.000000)">
                <path d="M12.5,1.64031242 L1.5,10.4403124 L1.5,23.2193752 L8.00167535,23.2193752 L8.00693309,18.5145625 C8.06127215,17.7166827 8.42654879,17.0037885 8.98381604,16.4978739 C9.51651731,16.0142615 10.2237954,15.7193752 11,15.7193752 L14.2057455,15.7263719 C15.0032482,15.7809321 15.7157838,16.1461411 16.2215012,16.7031912 C16.7051137,17.2358925 17,17.9431705 17,18.7193752 L17,23.2193752 L23.5,23.2193752 L23.5,10.4403124 L12.5,1.64031242 Z" id="Combined-Shape" stroke-width="3"></path>
                <path d="M20.5,2.46937515 L19.25,2.71937515 L19.25,6.46937515 L20.75,6.46937515 L20.5,2.46937515 Z" id="Rectangle" stroke-width="1.5"></path>
            </g>
        </g>
    </g>
</svg>