<?xml version="1.0" encoding="UTF-8"?>
<svg width="25px" height="45px" viewBox="0 0 25 45" version="1.1" xmlns="http://www.w3.org/2000/svg" xmlns:xlink="http://www.w3.org/1999/xlink">
    <!-- Generator: Sketch 64 (93537) - https://sketch.com -->
    <title>Combined Shape</title>
    <desc>Created with Sketch.</desc>
    <g id="Page-1" stroke="none" stroke-width="1" fill="none" fill-rule="evenodd">
        <g id="Artboard" transform="translate(-88.000000, -252.000000)" fill="#4E4E4E">
            <path d="M112.522533,275.687758 L111.426601,276.798372 C111.360801,276.865053 111.290768,276.925021 111.217353,276.978269 L91.9478531,296.503904 C91.3013246,297.159095 90.246073,297.166116 89.5908826,296.519588 L89.575199,296.503904 L89.575199,296.503904 L88.479267,295.39329 C87.8388142,294.744256 87.8388142,293.701036 88.479267,293.052003 L106.785881,274.499028 L88.4792204,255.947997 C87.8387859,255.298982 87.8387649,254.255798 88.4791731,253.606758 L89.57506,252.496099 C90.221562,251.840883 91.2768133,251.833818 91.9320297,252.48032 C91.9373085,252.485529 91.9425525,252.490773 91.9477612,252.496051 L111.217171,272.021679 C111.284814,272.070731 111.349617,272.125501 111.410917,272.185991 C111.41618,272.191184 111.421408,272.196412 111.426601,272.201675 L112.522533,273.312289 C112.823923,273.617717 112.983482,274.010438 113.00121,274.408295 L113.00121,274.591752 C112.983482,274.989609 112.823922,275.38233 112.522533,275.687758 Z" id="Combined-Shape" transform="translate(100.500046, 274.499978) rotate(180.000000) translate(-100.500046, -274.499978) "></path>
        </g>
    </g>
</svg>