<?xml version="1.0" encoding="UTF-8"?>
<svg width="25px" height="22px" viewBox="0 0 25 22" version="1.1" xmlns="http://www.w3.org/2000/svg" xmlns:xlink="http://www.w3.org/1999/xlink">
    <!-- Generator: Sketch 63.1 (92452) - https://sketch.com -->
    <title>Combined Shape</title>
    <desc>Created with Sketch.</desc>
    <g id="Page-1" stroke="none" stroke-width="1" fill="none" fill-rule="evenodd">
        <g id="Artboard" transform="translate(-51.000000, -48.000000)" fill="#5F9CD1">
            <path d="M74.812857,48.0178675 L74.855426,48.0161341 C75.3826659,48.0165943 75.8570308,48.3828731 75.9737646,48.9191691 C75.9912045,48.9992915 76,49.0810534 76,49.1630519 L75.999,63.844 L76,63.8712286 C76,63.8793714 75.999959,63.8874946 75.9998772,63.8955981 L76,64.1486219 C76,64.4047226 75.9160432,64.6412141 75.7741514,64.8320745 C75.1950022,65.953138 73.5626569,66.4889264 71.6395349,66.4889264 C69.2313165,66.4889264 67.2790698,65.047962 67.2790698,63.2704423 C67.2790698,61.4929226 69.2313165,60.0519582 71.6395349,60.0519582 C71.9382038,60.0519582 72.2298594,60.0833626 72.5116473,60.1417727 L72.511,51.921 L59.72,54.191 L59.7209302,67.6829647 C59.7209302,67.961335 59.6217374,68.2165376 59.4567693,68.4151548 C58.845463,69.4870489 57.2421555,70 55.3604651,70 C52.9522467,70 51,68.5590356 51,66.7815159 C51,65.0039962 52.9522467,63.5630318 55.3604651,63.5630318 C55.659134,63.5630318 55.9507896,63.5944362 56.2325775,63.6528462 L56.2325581,52.4209516 C56.2325581,52.3346928 56.2420826,52.2506586 56.2601373,52.1698432 C56.2749428,51.6366123 56.6613674,51.1696609 57.2063718,51.0729366 L74.4154272,48.0187685 C74.5507958,47.994744 74.6848283,47.9955305 74.812857,48.0178675 Z" id="Combined-Shape"></path>
        </g>
    </g>
</svg>