<?xml version="1.0" encoding="UTF-8"?>
<svg width="38px" height="38px" viewBox="0 0 38 38" version="1.1" xmlns="http://www.w3.org/2000/svg" xmlns:xlink="http://www.w3.org/1999/xlink">
    <!-- Generator: Sketch 64 (93537) - https://sketch.com -->
    <title>Combined Shape</title>
    <desc>Created with Sketch.</desc>
    <g id="Page-1" stroke="none" stroke-width="1" fill="none" fill-rule="evenodd">
        <g id="Artboard" transform="translate(-333.000000, -181.000000)" fill="#DF5656">
            <path d="M338.12132,181.87868 L351.556,195.313 L364.991378,181.87868 C366.162951,180.707107 368.062446,180.707107 369.234019,181.87868 C370.405592,183.050253 370.405592,184.949747 369.234019,186.12132 L355.799,199.556 L369.234019,212.991378 C370.405592,214.162951 370.405592,216.062446 369.234019,217.234019 C368.062446,218.405592 366.162951,218.405592 364.991378,217.234019 L351.556,203.799 L338.12132,217.234019 C336.949747,218.405592 335.050253,218.405592 333.87868,217.234019 C332.707107,216.062446 332.707107,214.162951 333.87868,212.991378 L347.313,199.556 L333.87868,186.12132 C332.707107,184.949747 332.707107,183.050253 333.87868,181.87868 C335.050253,180.707107 336.949747,180.707107 338.12132,181.87868 Z" id="Combined-Shape"></path>
        </g>
    </g>
</svg>