<?xml version="1.0" encoding="UTF-8"?>
<svg width="38px" height="38px" viewBox="0 0 38 38" version="1.1" xmlns="http://www.w3.org/2000/svg" xmlns:xlink="http://www.w3.org/1999/xlink">
    <!-- Generator: Sketch 64 (93537) - https://sketch.com -->
    <title>Combined Shape</title>
    <desc>Created with Sketch.</desc>
    <g id="Page-1" stroke="none" stroke-width="1" fill="none" fill-rule="evenodd">
        <g id="Artboard" transform="translate(-306.000000, -268.000000)" fill="#F8F8F8">
            <path d="M311.12132,268.87868 L324.556,282.313 L337.991378,268.87868 C339.162951,267.707107 341.062446,267.707107 342.234019,268.87868 C343.405592,270.050253 343.405592,271.949747 342.234019,273.12132 L328.799,286.556 L342.234019,299.991378 C343.405592,301.162951 343.405592,303.062446 342.234019,304.234019 C341.062446,305.405592 339.162951,305.405592 337.991378,304.234019 L324.556,290.799 L311.12132,304.234019 C309.949747,305.405592 308.050253,305.405592 306.87868,304.234019 C305.707107,303.062446 305.707107,301.162951 306.87868,299.991378 L320.313,286.556 L306.87868,273.12132 C305.707107,271.949747 305.707107,270.050253 306.87868,268.87868 C308.050253,267.707107 309.949747,267.707107 311.12132,268.87868 Z" id="Combined-Shape"></path>
        </g>
    </g>
</svg>