<?xml version="1.0" encoding="UTF-8"?>
<svg width="45px" height="25px" viewBox="0 0 45 25" version="1.1" xmlns="http://www.w3.org/2000/svg" xmlns:xlink="http://www.w3.org/1999/xlink">
    <!-- Generator: Sketch 63.1 (92452) - https://sketch.com -->
    <title>Combined Shape</title>
    <desc>Created with Sketch.</desc>
    <g id="Page-1" stroke="none" stroke-width="1" fill="none" fill-rule="evenodd">
        <g id="Artboard" transform="translate(-93.000000, -206.000000)" fill="#5F9CD1">
            <path d="M127.522465,219.687734 L126.426533,220.798349 C126.360733,220.86503 126.2907,220.924998 126.217286,220.978246 L106.947785,240.503881 C106.301257,241.159071 105.246005,241.166093 104.590815,240.519565 C104.585552,240.514372 104.580324,240.509144 104.575131,240.503881 L103.479199,239.393266 C102.838746,238.744233 102.838746,237.701013 103.479199,237.051979 L121.785,218.499 L103.479153,199.947973 C102.838718,199.298959 102.838697,198.255775 103.479105,197.606734 L104.574992,196.496076 C105.221494,195.840859 106.276745,195.833795 106.931962,196.480297 L106.947693,196.496028 L106.947693,196.496028 L126.217103,216.021655 C126.284746,216.070708 126.349549,216.125477 126.410849,216.185968 L126.426533,216.201651 L126.426533,216.201651 L127.522465,217.312266 C127.823855,217.617693 127.983414,218.010415 128.001143,218.408271 L128.001143,218.591729 C127.983414,218.989585 127.823855,219.382307 127.522465,219.687734 Z" id="Combined-Shape" transform="translate(115.500000, 218.500000) rotate(90.000000) translate(-115.500000, -218.500000) "></path>
        </g>
    </g>
</svg>